<svg width="144" height="44" viewBox="0 0 144 44" fill="none" xmlns="http://www.w3.org/2000/svg">
<path d="M0 8V36C0 40.4183 3.18375 44 7.11111 44H20V0H7.11111C3.18375 0 0 3.58172 0 8Z" fill="#083040"/>
<path d="M141.209 10.4692L131.187 1.85545C129.792 0.656586 128.034 0 126.217 0H124V44H136.24C140.526 44 144 40.4183 144 36V16.6138C144 14.2402 142.978 11.9892 141.209 10.4692Z" fill="#083040"/>
<rect width="104" height="44" transform="translate(20)" fill="#083040"/>
<path d="M33.3934 26.228C32.6094 26.228 31.9254 26.1 31.3414 25.844C30.7574 25.58 30.2734 25.228 29.8894 24.788C29.5134 24.348 29.2334 23.86 29.0494 23.324C28.8654 22.788 28.7734 22.252 28.7734 21.716V21.452C28.7734 20.9 28.8654 20.36 29.0494 19.832C29.2334 19.304 29.5094 18.824 29.8774 18.392C30.2534 17.96 30.7174 17.616 31.2694 17.36C31.8294 17.104 32.4734 16.976 33.2014 16.976C33.9934 16.976 34.6934 17.124 35.3014 17.42C35.9094 17.708 36.3974 18.112 36.7654 18.632C37.1334 19.144 37.3454 19.74 37.4014 20.42H35.4334C35.3854 20.1 35.2574 19.82 35.0494 19.58C34.8494 19.34 34.5894 19.152 34.2694 19.016C33.9574 18.88 33.6014 18.812 33.2014 18.812C32.8174 18.812 32.4734 18.88 32.1694 19.016C31.8734 19.152 31.6174 19.344 31.4014 19.592C31.1934 19.84 31.0334 20.136 30.9214 20.48C30.8174 20.816 30.7654 21.188 30.7654 21.596C30.7654 22.02 30.8214 22.408 30.9334 22.76C31.0534 23.104 31.2254 23.404 31.4494 23.66C31.6734 23.908 31.9494 24.1 32.2774 24.236C32.6134 24.372 32.9854 24.44 33.3934 24.44C33.9374 24.44 34.4094 24.328 34.8094 24.104C35.2094 23.88 35.4974 23.584 35.6734 23.216L35.4334 24.56V22.472H37.2454V24.344C36.8694 24.952 36.3494 25.42 35.6854 25.748C35.0294 26.068 34.2654 26.228 33.3934 26.228ZM33.1414 22.856V21.44H37.9654V22.856H33.1414ZM39.6575 26V17.24H41.5775V26H39.6575ZM41.3375 26V24.368H45.1655V26H41.3375ZM41.3375 22.364V20.732H44.8895V22.364H41.3375ZM41.3375 18.872V17.24H45.0815V18.872H41.3375ZM48.9425 26V18.716H50.9105V26H48.9425ZM46.4825 18.956V17.24H53.3825V18.956H46.4825ZM61.028 26.228C60.236 26.228 59.568 26.104 59.024 25.856C58.48 25.6 58.068 25.256 57.788 24.824C57.508 24.384 57.368 23.88 57.368 23.312H59.276C59.276 23.536 59.336 23.744 59.456 23.936C59.584 24.128 59.776 24.284 60.032 24.404C60.288 24.516 60.62 24.572 61.028 24.572C61.396 24.572 61.704 24.524 61.952 24.428C62.2 24.332 62.388 24.2 62.516 24.032C62.644 23.856 62.708 23.656 62.708 23.432C62.708 23.152 62.588 22.932 62.348 22.772C62.108 22.604 61.72 22.496 61.184 22.448L60.524 22.388C59.652 22.316 58.956 22.044 58.436 21.572C57.916 21.1 57.656 20.476 57.656 19.7C57.656 19.14 57.788 18.656 58.052 18.248C58.324 17.84 58.7 17.528 59.18 17.312C59.66 17.088 60.228 16.976 60.884 16.976C61.572 16.976 62.16 17.096 62.648 17.336C63.144 17.568 63.524 17.9 63.788 18.332C64.052 18.756 64.184 19.256 64.184 19.832H62.264C62.264 19.616 62.212 19.42 62.108 19.244C62.004 19.06 61.848 18.912 61.64 18.8C61.44 18.688 61.188 18.632 60.884 18.632C60.596 18.632 60.352 18.68 60.152 18.776C59.96 18.872 59.816 19.004 59.72 19.172C59.624 19.332 59.576 19.508 59.576 19.7C59.576 19.948 59.664 20.164 59.84 20.348C60.016 20.532 60.304 20.64 60.704 20.672L61.376 20.732C62.016 20.788 62.58 20.928 63.068 21.152C63.556 21.368 63.936 21.668 64.208 22.052C64.488 22.428 64.628 22.888 64.628 23.432C64.628 23.992 64.48 24.484 64.184 24.908C63.896 25.324 63.484 25.648 62.948 25.88C62.412 26.112 61.772 26.228 61.028 26.228ZM67.8978 26V18.716H69.8658V26H67.8978ZM65.4378 18.956V17.24H72.3378V18.956H65.4378ZM72.3944 26L75.2864 17.24H78.4664L81.4664 26H79.4264L77.0024 18.596L77.6264 18.848H76.0784L76.7264 18.596L74.3624 26H72.3944ZM74.5904 23.828L75.1904 22.196H78.6224L79.2344 23.828H74.5904ZM83.0291 26V17.168H84.9971V26H83.0291ZM88.3451 26L85.7771 22.232H87.9371L90.6251 26H88.3451ZM84.4691 23.192V21.644H86.6291C86.9171 21.644 87.1651 21.588 87.3731 21.476C87.5891 21.356 87.7531 21.192 87.8651 20.984C87.9851 20.768 88.0451 20.52 88.0451 20.24C88.0451 19.96 87.9851 19.716 87.8651 19.508C87.7531 19.292 87.5891 19.128 87.3731 19.016C87.1651 18.896 86.9171 18.836 86.6291 18.836H84.4691V17.168H86.4731C87.2011 17.168 87.8331 17.28 88.3691 17.504C88.9051 17.72 89.3171 18.044 89.6051 18.476C89.8931 18.908 90.0371 19.452 90.0371 20.108V20.3C90.0371 20.948 89.8891 21.488 89.5931 21.92C89.3051 22.344 88.8931 22.664 88.3571 22.88C87.8291 23.088 87.2011 23.192 86.4731 23.192H84.4691ZM93.7086 26V18.716H95.6766V26H93.7086ZM91.2486 18.956V17.24H98.1486V18.956H91.2486ZM99.8066 26V17.24H101.727V26H99.8066ZM101.487 26V24.368H105.315V26H101.487ZM101.487 22.364V20.732H105.039V22.364H101.487ZM101.487 18.872V17.24H105.231V18.872H101.487ZM109.08 26.048V24.212H110.712C111.12 24.212 111.488 24.152 111.816 24.032C112.144 23.904 112.424 23.728 112.656 23.504C112.888 23.272 113.064 22.996 113.184 22.676C113.304 22.348 113.364 21.988 113.364 21.596C113.364 21.188 113.304 20.824 113.184 20.504C113.064 20.184 112.888 19.912 112.656 19.688C112.424 19.464 112.144 19.296 111.816 19.184C111.488 19.064 111.12 19.004 110.712 19.004H109.08V17.168H110.604C111.396 17.168 112.088 17.284 112.68 17.516C113.272 17.748 113.768 18.064 114.168 18.464C114.568 18.864 114.864 19.324 115.056 19.844C115.256 20.356 115.356 20.896 115.356 21.464V21.728C115.356 22.256 115.256 22.78 115.056 23.3C114.864 23.812 114.568 24.276 114.168 24.692C113.768 25.1 113.272 25.428 112.68 25.676C112.088 25.924 111.396 26.048 110.604 26.048H109.08ZM107.352 26.048V17.168H109.32V26.048H107.352Z" fill="white"/>
<rect width="103" height="44" transform="translate(20)" fill="#083040"/>
<path d="M29.2693 26.5V17.74H31.2373V26.5H29.2693ZM33.6497 26.5V17.74H36.8777L40.1777 24.904H40.5857L40.3457 25.12V17.74H42.1937V26.5H38.9417L35.6417 19.336H35.2337L35.4737 19.12V26.5H33.6497ZM47.6294 26.728C46.8374 26.728 46.1694 26.604 45.6254 26.356C45.0814 26.1 44.6694 25.756 44.3894 25.324C44.1094 24.884 43.9694 24.38 43.9694 23.812H45.8774C45.8774 24.036 45.9374 24.244 46.0574 24.436C46.1854 24.628 46.3774 24.784 46.6334 24.904C46.8894 25.016 47.2214 25.072 47.6294 25.072C47.9974 25.072 48.3054 25.024 48.5534 24.928C48.8014 24.832 48.9894 24.7 49.1174 24.532C49.2454 24.356 49.3094 24.156 49.3094 23.932C49.3094 23.652 49.1894 23.432 48.9494 23.272C48.7094 23.104 48.3214 22.996 47.7854 22.948L47.1254 22.888C46.2534 22.816 45.5574 22.544 45.0374 22.072C44.5174 21.6 44.2574 20.976 44.2574 20.2C44.2574 19.64 44.3894 19.156 44.6534 18.748C44.9254 18.34 45.3014 18.028 45.7814 17.812C46.2614 17.588 46.8294 17.476 47.4854 17.476C48.1734 17.476 48.7614 17.596 49.2494 17.836C49.7454 18.068 50.1254 18.4 50.3894 18.832C50.6534 19.256 50.7854 19.756 50.7854 20.332H48.8654C48.8654 20.116 48.8134 19.92 48.7094 19.744C48.6054 19.56 48.4494 19.412 48.2414 19.3C48.0414 19.188 47.7894 19.132 47.4854 19.132C47.1974 19.132 46.9534 19.18 46.7534 19.276C46.5614 19.372 46.4174 19.504 46.3214 19.672C46.2254 19.832 46.1774 20.008 46.1774 20.2C46.1774 20.448 46.2654 20.664 46.4414 20.848C46.6174 21.032 46.9054 21.14 47.3054 21.172L47.9774 21.232C48.6174 21.288 49.1814 21.428 49.6694 21.652C50.1574 21.868 50.5374 22.168 50.8094 22.552C51.0894 22.928 51.2294 23.388 51.2294 23.932C51.2294 24.492 51.0814 24.984 50.7854 25.408C50.4974 25.824 50.0854 26.148 49.5494 26.38C49.0134 26.612 48.3734 26.728 47.6294 26.728ZM54.4992 26.5V19.216H56.4672V26.5H54.4992ZM52.0392 19.456V17.74H58.9392V19.456H52.0392ZM58.9958 26.5L61.8878 17.74H65.0678L68.0678 26.5H66.0278L63.6038 19.096L64.2278 19.348H62.6798L63.3278 19.096L60.9638 26.5H58.9958ZM61.1918 24.328L61.7918 22.696H65.2238L65.8358 24.328H61.1918ZM69.6305 26.5V17.74H71.5985V26.5H69.6305ZM71.3585 26.5V24.772H75.0305V26.5H71.3585ZM76.7419 26.5V17.74H78.7099V26.5H76.7419ZM78.4699 26.5V24.772H82.1419V26.5H78.4699ZM88.4728 26.56V25.024H90.5248C90.8928 25.024 91.1688 24.928 91.3528 24.736C91.5368 24.544 91.6288 24.272 91.6288 23.92C91.6288 23.568 91.5368 23.3 91.3528 23.116C91.1688 22.924 90.8928 22.828 90.5248 22.828H88.4728V21.64H90.4288C91.0368 21.64 91.5768 21.716 92.0488 21.868C92.5208 22.012 92.8928 22.248 93.1648 22.576C93.4368 22.904 93.5728 23.348 93.5728 23.908V24.076C93.5728 24.596 93.4528 25.044 93.2128 25.42C92.9728 25.788 92.6208 26.072 92.1568 26.272C91.6928 26.464 91.1168 26.56 90.4288 26.56H88.4728ZM86.7928 26.56V17.668H88.7128V26.56H86.7928ZM88.4728 22.516V21.34H90.2008C90.5768 21.34 90.8488 21.244 91.0168 21.052C91.1848 20.86 91.2688 20.604 91.2688 20.284C91.2688 19.948 91.1848 19.684 91.0168 19.492C90.8488 19.3 90.5768 19.204 90.2008 19.204H88.4728V17.668H90.0808C91.0888 17.668 91.8608 17.88 92.3968 18.304C92.9408 18.728 93.2128 19.332 93.2128 20.116V20.296C93.2128 20.84 93.0728 21.276 92.7928 21.604C92.5208 21.932 92.1488 22.168 91.6768 22.312C91.2128 22.448 90.6808 22.516 90.0808 22.516H88.4728ZM99.1465 26.728C98.3225 26.728 97.6225 26.576 97.0465 26.272C96.4785 25.96 96.0465 25.52 95.7505 24.952C95.4545 24.384 95.3065 23.712 95.3065 22.936V17.74H97.2745V23.008C97.2745 23.392 97.3465 23.728 97.4905 24.016C97.6425 24.296 97.8545 24.512 98.1265 24.664C98.4065 24.816 98.7465 24.892 99.1465 24.892C99.5545 24.892 99.8945 24.816 100.167 24.664C100.447 24.512 100.659 24.296 100.803 24.016C100.947 23.736 101.019 23.4 101.019 23.008V17.74H102.987V22.936C102.987 23.712 102.839 24.384 102.543 24.952C102.247 25.52 101.815 25.96 101.247 26.272C100.679 26.576 99.9785 26.728 99.1465 26.728ZM105.211 26.5V17.74H108.439L111.739 24.904H112.147L111.907 25.12V17.74H113.755V26.5H110.503L107.203 19.336H106.795L107.035 19.12V26.5H105.211Z" fill="white"/>
</svg>
