<svg width="144" height="44" viewBox="0 0 144 44" fill="none" xmlns="http://www.w3.org/2000/svg">
<path d="M0 8V36C0 40.4183 3.18375 44 7.11111 44H20V0H7.11111C3.18375 0 0 3.58172 0 8Z" fill="#CED6D9"/>
<path d="M141.209 10.4692L131.187 1.85545C129.792 0.656586 128.034 0 126.217 0H124V44H136.24C140.526 44 144 40.4183 144 36V16.6138C144 14.2402 142.978 11.9892 141.209 10.4692Z" fill="#CED6D9"/>
<rect width="104" height="44" transform="translate(20)" fill="#CED6D9"/>
<path d="M33.3934 26.228C32.6094 26.228 31.9254 26.1 31.3414 25.844C30.7574 25.58 30.2734 25.228 29.8894 24.788C29.5134 24.348 29.2334 23.86 29.0494 23.324C28.8654 22.788 28.7734 22.252 28.7734 21.716V21.452C28.7734 20.9 28.8654 20.36 29.0494 19.832C29.2334 19.304 29.5094 18.824 29.8774 18.392C30.2534 17.96 30.7174 17.616 31.2694 17.36C31.8294 17.104 32.4734 16.976 33.2014 16.976C33.9934 16.976 34.6934 17.124 35.3014 17.42C35.9094 17.708 36.3974 18.112 36.7654 18.632C37.1334 19.144 37.3454 19.74 37.4014 20.42H35.4334C35.3854 20.1 35.2574 19.82 35.0494 19.58C34.8494 19.34 34.5894 19.152 34.2694 19.016C33.9574 18.88 33.6014 18.812 33.2014 18.812C32.8174 18.812 32.4734 18.88 32.1694 19.016C31.8734 19.152 31.6174 19.344 31.4014 19.592C31.1934 19.84 31.0334 20.136 30.9214 20.48C30.8174 20.816 30.7654 21.188 30.7654 21.596C30.7654 22.02 30.8214 22.408 30.9334 22.76C31.0534 23.104 31.2254 23.404 31.4494 23.66C31.6734 23.908 31.9494 24.1 32.2774 24.236C32.6134 24.372 32.9854 24.44 33.3934 24.44C33.9374 24.44 34.4094 24.328 34.8094 24.104C35.2094 23.88 35.4974 23.584 35.6734 23.216L35.4334 24.56V22.472H37.2454V24.344C36.8694 24.952 36.3494 25.42 35.6854 25.748C35.0294 26.068 34.2654 26.228 33.3934 26.228ZM33.1414 22.856V21.44H37.9654V22.856H33.1414ZM39.6575 26V17.24H41.5775V26H39.6575ZM41.3375 26V24.368H45.1655V26H41.3375ZM41.3375 22.364V20.732H44.8895V22.364H41.3375ZM41.3375 18.872V17.24H45.0815V18.872H41.3375ZM48.9425 26V18.716H50.9105V26H48.9425ZM46.4825 18.956V17.24H53.3825V18.956H46.4825ZM61.028 26.228C60.236 26.228 59.568 26.104 59.024 25.856C58.48 25.6 58.068 25.256 57.788 24.824C57.508 24.384 57.368 23.88 57.368 23.312H59.276C59.276 23.536 59.336 23.744 59.456 23.936C59.584 24.128 59.776 24.284 60.032 24.404C60.288 24.516 60.62 24.572 61.028 24.572C61.396 24.572 61.704 24.524 61.952 24.428C62.2 24.332 62.388 24.2 62.516 24.032C62.644 23.856 62.708 23.656 62.708 23.432C62.708 23.152 62.588 22.932 62.348 22.772C62.108 22.604 61.72 22.496 61.184 22.448L60.524 22.388C59.652 22.316 58.956 22.044 58.436 21.572C57.916 21.1 57.656 20.476 57.656 19.7C57.656 19.14 57.788 18.656 58.052 18.248C58.324 17.84 58.7 17.528 59.18 17.312C59.66 17.088 60.228 16.976 60.884 16.976C61.572 16.976 62.16 17.096 62.648 17.336C63.144 17.568 63.524 17.9 63.788 18.332C64.052 18.756 64.184 19.256 64.184 19.832H62.264C62.264 19.616 62.212 19.42 62.108 19.244C62.004 19.06 61.848 18.912 61.64 18.8C61.44 18.688 61.188 18.632 60.884 18.632C60.596 18.632 60.352 18.68 60.152 18.776C59.96 18.872 59.816 19.004 59.72 19.172C59.624 19.332 59.576 19.508 59.576 19.7C59.576 19.948 59.664 20.164 59.84 20.348C60.016 20.532 60.304 20.64 60.704 20.672L61.376 20.732C62.016 20.788 62.58 20.928 63.068 21.152C63.556 21.368 63.936 21.668 64.208 22.052C64.488 22.428 64.628 22.888 64.628 23.432C64.628 23.992 64.48 24.484 64.184 24.908C63.896 25.324 63.484 25.648 62.948 25.88C62.412 26.112 61.772 26.228 61.028 26.228ZM67.8978 26V18.716H69.8658V26H67.8978ZM65.4378 18.956V17.24H72.3378V18.956H65.4378ZM72.3944 26L75.2864 17.24H78.4664L81.4664 26H79.4264L77.0024 18.596L77.6264 18.848H76.0784L76.7264 18.596L74.3624 26H72.3944ZM74.5904 23.828L75.1904 22.196H78.6224L79.2344 23.828H74.5904ZM83.0291 26V17.168H84.9971V26H83.0291ZM88.3451 26L85.7771 22.232H87.9371L90.6251 26H88.3451ZM84.4691 23.192V21.644H86.6291C86.9171 21.644 87.1651 21.588 87.3731 21.476C87.5891 21.356 87.7531 21.192 87.8651 20.984C87.9851 20.768 88.0451 20.52 88.0451 20.24C88.0451 19.96 87.9851 19.716 87.8651 19.508C87.7531 19.292 87.5891 19.128 87.3731 19.016C87.1651 18.896 86.9171 18.836 86.6291 18.836H84.4691V17.168H86.4731C87.2011 17.168 87.8331 17.28 88.3691 17.504C88.9051 17.72 89.3171 18.044 89.6051 18.476C89.8931 18.908 90.0371 19.452 90.0371 20.108V20.3C90.0371 20.948 89.8891 21.488 89.5931 21.92C89.3051 22.344 88.8931 22.664 88.3571 22.88C87.8291 23.088 87.2011 23.192 86.4731 23.192H84.4691ZM93.7086 26V18.716H95.6766V26H93.7086ZM91.2486 18.956V17.24H98.1486V18.956H91.2486ZM99.8066 26V17.24H101.727V26H99.8066ZM101.487 26V24.368H105.315V26H101.487ZM101.487 22.364V20.732H105.039V22.364H101.487ZM101.487 18.872V17.24H105.231V18.872H101.487ZM109.08 26.048V24.212H110.712C111.12 24.212 111.488 24.152 111.816 24.032C112.144 23.904 112.424 23.728 112.656 23.504C112.888 23.272 113.064 22.996 113.184 22.676C113.304 22.348 113.364 21.988 113.364 21.596C113.364 21.188 113.304 20.824 113.184 20.504C113.064 20.184 112.888 19.912 112.656 19.688C112.424 19.464 112.144 19.296 111.816 19.184C111.488 19.064 111.12 19.004 110.712 19.004H109.08V17.168H110.604C111.396 17.168 112.088 17.284 112.68 17.516C113.272 17.748 113.768 18.064 114.168 18.464C114.568 18.864 114.864 19.324 115.056 19.844C115.256 20.356 115.356 20.896 115.356 21.464V21.728C115.356 22.256 115.256 22.78 115.056 23.3C114.864 23.812 114.568 24.276 114.168 24.692C113.768 25.1 113.272 25.428 112.68 25.676C112.088 25.924 111.396 26.048 110.604 26.048H109.08ZM107.352 26.048V17.168H109.32V26.048H107.352Z" fill="white"/>
<rect width="105" height="44" transform="translate(20)" fill="#CED6D9"/>
<path d="M35.0305 29.116C34.4865 29.116 34.0145 29.052 33.6145 28.924C33.2225 28.796 32.9145 28.564 32.6905 28.228C32.4745 27.892 32.3665 27.412 32.3665 26.788V25.444H34.2025V26.872C34.2025 27.104 34.2665 27.28 34.3945 27.4C34.5305 27.528 34.7145 27.592 34.9465 27.592H36.2545V29.116H35.0305ZM33.3145 26.728C32.5225 26.728 31.8305 26.592 31.2385 26.32C30.6545 26.04 30.1705 25.676 29.7865 25.228C29.4025 24.772 29.1145 24.28 28.9225 23.752C28.7385 23.224 28.6465 22.716 28.6465 22.228V21.964C28.6465 21.42 28.7425 20.884 28.9345 20.356C29.1345 19.82 29.4305 19.336 29.8225 18.904C30.2145 18.472 30.7025 18.128 31.2865 17.872C31.8705 17.608 32.5465 17.476 33.3145 17.476C34.0825 17.476 34.7585 17.608 35.3425 17.872C35.9265 18.128 36.4145 18.472 36.8065 18.904C37.1985 19.336 37.4945 19.82 37.6945 20.356C37.8945 20.884 37.9945 21.42 37.9945 21.964V22.228C37.9945 22.716 37.8985 23.224 37.7065 23.752C37.5145 24.28 37.2265 24.772 36.8425 25.228C36.4585 25.676 35.9705 26.04 35.3785 26.32C34.7945 26.592 34.1065 26.728 33.3145 26.728ZM33.3145 24.892C33.7305 24.892 34.1025 24.82 34.4305 24.676C34.7665 24.532 35.0505 24.332 35.2825 24.076C35.5225 23.82 35.7025 23.524 35.8225 23.188C35.9425 22.852 36.0025 22.492 36.0025 22.108C36.0025 21.7 35.9385 21.328 35.8105 20.992C35.6905 20.648 35.5105 20.352 35.2705 20.104C35.0385 19.848 34.7585 19.652 34.4305 19.516C34.1025 19.38 33.7305 19.312 33.3145 19.312C32.8985 19.312 32.5265 19.38 32.1985 19.516C31.8705 19.652 31.5865 19.848 31.3465 20.104C31.1145 20.352 30.9385 20.648 30.8185 20.992C30.6985 21.328 30.6385 21.7 30.6385 22.108C30.6385 22.492 30.6985 22.852 30.8185 23.188C30.9385 23.524 31.1145 23.82 31.3465 24.076C31.5865 24.332 31.8705 24.532 32.1985 24.676C32.5265 24.82 32.8985 24.892 33.3145 24.892ZM43.5776 26.728C42.7536 26.728 42.0536 26.576 41.4776 26.272C40.9096 25.96 40.4776 25.52 40.1816 24.952C39.8856 24.384 39.7376 23.712 39.7376 22.936V17.74H41.7056V23.008C41.7056 23.392 41.7776 23.728 41.9216 24.016C42.0736 24.296 42.2856 24.512 42.5576 24.664C42.8376 24.816 43.1776 24.892 43.5776 24.892C43.9856 24.892 44.3256 24.816 44.5976 24.664C44.8776 24.512 45.0896 24.296 45.2336 24.016C45.3776 23.736 45.4496 23.4 45.4496 23.008V17.74H47.4176V22.936C47.4176 23.712 47.2696 24.384 46.9736 24.952C46.6776 25.52 46.2456 25.96 45.6776 26.272C45.1096 26.576 44.4096 26.728 43.5776 26.728ZM49.666 26.5V17.74H51.634V26.5H49.666ZM58.0663 26.728C57.2743 26.728 56.5943 26.592 56.0263 26.32C55.4583 26.04 54.9943 25.676 54.6343 25.228C54.2743 24.772 54.0063 24.284 53.8303 23.764C53.6623 23.236 53.5783 22.724 53.5783 22.228V21.964C53.5783 21.42 53.6663 20.884 53.8423 20.356C54.0183 19.82 54.2863 19.336 54.6463 18.904C55.0143 18.472 55.4743 18.128 56.0263 17.872C56.5863 17.608 57.2463 17.476 58.0063 17.476C58.7983 17.476 59.4983 17.624 60.1063 17.92C60.7143 18.216 61.1983 18.628 61.5583 19.156C61.9263 19.676 62.1423 20.288 62.2063 20.992H60.2263C60.1703 20.64 60.0423 20.34 59.8423 20.092C59.6423 19.844 59.3823 19.652 59.0623 19.516C58.7503 19.38 58.3983 19.312 58.0063 19.312C57.6143 19.312 57.2663 19.38 56.9623 19.516C56.6583 19.652 56.4023 19.844 56.1943 20.092C55.9943 20.34 55.8383 20.636 55.7263 20.98C55.6223 21.316 55.5703 21.692 55.5703 22.108C55.5703 22.516 55.6223 22.892 55.7263 23.236C55.8383 23.572 55.9983 23.868 56.2063 24.124C56.4223 24.372 56.6863 24.564 56.9983 24.7C57.3103 24.828 57.6663 24.892 58.0663 24.892C58.6743 24.892 59.1863 24.744 59.6023 24.448C60.0263 24.152 60.2823 23.744 60.3703 23.224H62.3383C62.2663 23.864 62.0503 24.452 61.6903 24.988C61.3383 25.516 60.8543 25.94 60.2383 26.26C59.6303 26.572 58.9063 26.728 58.0663 26.728ZM69.824 26.5L66.8 22.408H65.588L69.26 17.74H71.516L68.216 21.928L68.192 21.076L72.2 26.5H69.824ZM64.064 26.5V17.74H66.032V26.5H64.064ZM79.495 26.728C78.703 26.728 78.035 26.604 77.491 26.356C76.947 26.1 76.535 25.756 76.255 25.324C75.975 24.884 75.835 24.38 75.835 23.812H77.743C77.743 24.036 77.803 24.244 77.923 24.436C78.051 24.628 78.243 24.784 78.499 24.904C78.755 25.016 79.087 25.072 79.495 25.072C79.863 25.072 80.171 25.024 80.419 24.928C80.667 24.832 80.855 24.7 80.983 24.532C81.111 24.356 81.175 24.156 81.175 23.932C81.175 23.652 81.055 23.432 80.815 23.272C80.575 23.104 80.187 22.996 79.651 22.948L78.991 22.888C78.119 22.816 77.423 22.544 76.903 22.072C76.383 21.6 76.123 20.976 76.123 20.2C76.123 19.64 76.255 19.156 76.519 18.748C76.791 18.34 77.167 18.028 77.647 17.812C78.127 17.588 78.695 17.476 79.351 17.476C80.039 17.476 80.627 17.596 81.115 17.836C81.611 18.068 81.991 18.4 82.255 18.832C82.519 19.256 82.651 19.756 82.651 20.332H80.731C80.731 20.116 80.679 19.92 80.575 19.744C80.471 19.56 80.315 19.412 80.107 19.3C79.907 19.188 79.655 19.132 79.351 19.132C79.063 19.132 78.819 19.18 78.619 19.276C78.427 19.372 78.283 19.504 78.187 19.672C78.091 19.832 78.043 20.008 78.043 20.2C78.043 20.448 78.131 20.664 78.307 20.848C78.483 21.032 78.771 21.14 79.171 21.172L79.843 21.232C80.483 21.288 81.047 21.428 81.535 21.652C82.023 21.868 82.403 22.168 82.675 22.552C82.955 22.928 83.095 23.388 83.095 23.932C83.095 24.492 82.947 24.984 82.651 25.408C82.363 25.824 81.951 26.148 81.415 26.38C80.879 26.612 80.239 26.728 79.495 26.728ZM86.3648 26.5V19.216H88.3328V26.5H86.3648ZM83.9048 19.456V17.74H90.8048V19.456H83.9048ZM90.8613 26.5L93.7533 17.74H96.9333L99.9333 26.5H97.8933L95.4693 19.096L96.0933 19.348H94.5453L95.1933 19.096L92.8293 26.5H90.8613ZM93.0573 24.328L93.6573 22.696H97.0893L97.7013 24.328H93.0573ZM101.496 26.5V17.668H103.464V26.5H101.496ZM106.812 26.5L104.244 22.732H106.404L109.092 26.5H106.812ZM102.936 23.692V22.144H105.096C105.384 22.144 105.632 22.088 105.84 21.976C106.056 21.856 106.22 21.692 106.332 21.484C106.452 21.268 106.512 21.02 106.512 20.74C106.512 20.46 106.452 20.216 106.332 20.008C106.22 19.792 106.056 19.628 105.84 19.516C105.632 19.396 105.384 19.336 105.096 19.336H102.936V17.668H104.94C105.668 17.668 106.3 17.78 106.836 18.004C107.372 18.22 107.784 18.544 108.072 18.976C108.36 19.408 108.504 19.952 108.504 20.608V20.8C108.504 21.448 108.356 21.988 108.06 22.42C107.772 22.844 107.36 23.164 106.824 23.38C106.296 23.588 105.668 23.692 104.94 23.692H102.936ZM112.176 26.5V19.216H114.144V26.5H112.176ZM109.716 19.456V17.74H116.616V19.456H109.716Z" fill="#083040"/>
</svg>
