<svg width="176" height="44" viewBox="0 0 176 44" fill="none" xmlns="http://www.w3.org/2000/svg">
<path d="M0 8V36C0 40.4183 3.89125 44 8.69136 44H24.4444V0H8.69136C3.89125 0 0 3.58172 0 8Z" fill="#083040"/>
<path d="M172.589 10.4692L160.34 1.85545C158.635 0.656586 156.485 0 154.266 0H151.556V44H166.515C171.753 44 176 40.4183 176 36V16.6138C176 14.2402 174.75 11.9892 172.589 10.4692Z" fill="#083040"/>
<rect width="104" height="44" transform="translate(20)" fill="#083040"/>
<path d="M33.3934 26.228C32.6094 26.228 31.9254 26.1 31.3414 25.844C30.7574 25.58 30.2734 25.228 29.8894 24.788C29.5134 24.348 29.2334 23.86 29.0494 23.324C28.8654 22.788 28.7734 22.252 28.7734 21.716V21.452C28.7734 20.9 28.8654 20.36 29.0494 19.832C29.2334 19.304 29.5094 18.824 29.8774 18.392C30.2534 17.96 30.7174 17.616 31.2694 17.36C31.8294 17.104 32.4734 16.976 33.2014 16.976C33.9934 16.976 34.6934 17.124 35.3014 17.42C35.9094 17.708 36.3974 18.112 36.7654 18.632C37.1334 19.144 37.3454 19.74 37.4014 20.42H35.4334C35.3854 20.1 35.2574 19.82 35.0494 19.58C34.8494 19.34 34.5894 19.152 34.2694 19.016C33.9574 18.88 33.6014 18.812 33.2014 18.812C32.8174 18.812 32.4734 18.88 32.1694 19.016C31.8734 19.152 31.6174 19.344 31.4014 19.592C31.1934 19.84 31.0334 20.136 30.9214 20.48C30.8174 20.816 30.7654 21.188 30.7654 21.596C30.7654 22.02 30.8214 22.408 30.9334 22.76C31.0534 23.104 31.2254 23.404 31.4494 23.66C31.6734 23.908 31.9494 24.1 32.2774 24.236C32.6134 24.372 32.9854 24.44 33.3934 24.44C33.9374 24.44 34.4094 24.328 34.8094 24.104C35.2094 23.88 35.4974 23.584 35.6734 23.216L35.4334 24.56V22.472H37.2454V24.344C36.8694 24.952 36.3494 25.42 35.6854 25.748C35.0294 26.068 34.2654 26.228 33.3934 26.228ZM33.1414 22.856V21.44H37.9654V22.856H33.1414ZM39.6575 26V17.24H41.5775V26H39.6575ZM41.3375 26V24.368H45.1655V26H41.3375ZM41.3375 22.364V20.732H44.8895V22.364H41.3375ZM41.3375 18.872V17.24H45.0815V18.872H41.3375ZM48.9425 26V18.716H50.9105V26H48.9425ZM46.4825 18.956V17.24H53.3825V18.956H46.4825ZM61.028 26.228C60.236 26.228 59.568 26.104 59.024 25.856C58.48 25.6 58.068 25.256 57.788 24.824C57.508 24.384 57.368 23.88 57.368 23.312H59.276C59.276 23.536 59.336 23.744 59.456 23.936C59.584 24.128 59.776 24.284 60.032 24.404C60.288 24.516 60.62 24.572 61.028 24.572C61.396 24.572 61.704 24.524 61.952 24.428C62.2 24.332 62.388 24.2 62.516 24.032C62.644 23.856 62.708 23.656 62.708 23.432C62.708 23.152 62.588 22.932 62.348 22.772C62.108 22.604 61.72 22.496 61.184 22.448L60.524 22.388C59.652 22.316 58.956 22.044 58.436 21.572C57.916 21.1 57.656 20.476 57.656 19.7C57.656 19.14 57.788 18.656 58.052 18.248C58.324 17.84 58.7 17.528 59.18 17.312C59.66 17.088 60.228 16.976 60.884 16.976C61.572 16.976 62.16 17.096 62.648 17.336C63.144 17.568 63.524 17.9 63.788 18.332C64.052 18.756 64.184 19.256 64.184 19.832H62.264C62.264 19.616 62.212 19.42 62.108 19.244C62.004 19.06 61.848 18.912 61.64 18.8C61.44 18.688 61.188 18.632 60.884 18.632C60.596 18.632 60.352 18.68 60.152 18.776C59.96 18.872 59.816 19.004 59.72 19.172C59.624 19.332 59.576 19.508 59.576 19.7C59.576 19.948 59.664 20.164 59.84 20.348C60.016 20.532 60.304 20.64 60.704 20.672L61.376 20.732C62.016 20.788 62.58 20.928 63.068 21.152C63.556 21.368 63.936 21.668 64.208 22.052C64.488 22.428 64.628 22.888 64.628 23.432C64.628 23.992 64.48 24.484 64.184 24.908C63.896 25.324 63.484 25.648 62.948 25.88C62.412 26.112 61.772 26.228 61.028 26.228ZM67.8978 26V18.716H69.8658V26H67.8978ZM65.4378 18.956V17.24H72.3378V18.956H65.4378ZM72.3944 26L75.2864 17.24H78.4664L81.4664 26H79.4264L77.0024 18.596L77.6264 18.848H76.0784L76.7264 18.596L74.3624 26H72.3944ZM74.5904 23.828L75.1904 22.196H78.6224L79.2344 23.828H74.5904ZM83.0291 26V17.168H84.9971V26H83.0291ZM88.3451 26L85.7771 22.232H87.9371L90.6251 26H88.3451ZM84.4691 23.192V21.644H86.6291C86.9171 21.644 87.1651 21.588 87.3731 21.476C87.5891 21.356 87.7531 21.192 87.8651 20.984C87.9851 20.768 88.0451 20.52 88.0451 20.24C88.0451 19.96 87.9851 19.716 87.8651 19.508C87.7531 19.292 87.5891 19.128 87.3731 19.016C87.1651 18.896 86.9171 18.836 86.6291 18.836H84.4691V17.168H86.4731C87.2011 17.168 87.8331 17.28 88.3691 17.504C88.9051 17.72 89.3171 18.044 89.6051 18.476C89.8931 18.908 90.0371 19.452 90.0371 20.108V20.3C90.0371 20.948 89.8891 21.488 89.5931 21.92C89.3051 22.344 88.8931 22.664 88.3571 22.88C87.8291 23.088 87.2011 23.192 86.4731 23.192H84.4691ZM93.7086 26V18.716H95.6766V26H93.7086ZM91.2486 18.956V17.24H98.1486V18.956H91.2486ZM99.8066 26V17.24H101.727V26H99.8066ZM101.487 26V24.368H105.315V26H101.487ZM101.487 22.364V20.732H105.039V22.364H101.487ZM101.487 18.872V17.24H105.231V18.872H101.487ZM109.08 26.048V24.212H110.712C111.12 24.212 111.488 24.152 111.816 24.032C112.144 23.904 112.424 23.728 112.656 23.504C112.888 23.272 113.064 22.996 113.184 22.676C113.304 22.348 113.364 21.988 113.364 21.596C113.364 21.188 113.304 20.824 113.184 20.504C113.064 20.184 112.888 19.912 112.656 19.688C112.424 19.464 112.144 19.296 111.816 19.184C111.488 19.064 111.12 19.004 110.712 19.004H109.08V17.168H110.604C111.396 17.168 112.088 17.284 112.68 17.516C113.272 17.748 113.768 18.064 114.168 18.464C114.568 18.864 114.864 19.324 115.056 19.844C115.256 20.356 115.356 20.896 115.356 21.464V21.728C115.356 22.256 115.256 22.78 115.056 23.3C114.864 23.812 114.568 24.276 114.168 24.692C113.768 25.1 113.272 25.428 112.68 25.676C112.088 25.924 111.396 26.048 110.604 26.048H109.08ZM107.352 26.048V17.168H109.32V26.048H107.352Z" fill="white"/>
<rect width="132" height="44" transform="translate(20)" fill="#083040"/>
<path d="M29.171 26.5V17.668H31.139V26.5H29.171ZM34.487 26.5L31.919 22.732H34.079L36.767 26.5H34.487ZM30.611 23.692V22.144H32.771C33.059 22.144 33.307 22.088 33.515 21.976C33.731 21.856 33.895 21.692 34.007 21.484C34.127 21.268 34.187 21.02 34.187 20.74C34.187 20.46 34.127 20.216 34.007 20.008C33.895 19.792 33.731 19.628 33.515 19.516C33.307 19.396 33.059 19.336 32.771 19.336H30.611V17.668H32.615C33.343 17.668 33.975 17.78 34.511 18.004C35.047 18.22 35.459 18.544 35.747 18.976C36.035 19.408 36.179 19.952 36.179 20.608V20.8C36.179 21.448 36.031 21.988 35.735 22.42C35.447 22.844 35.035 23.164 34.499 23.38C33.971 23.588 33.343 23.692 32.615 23.692H30.611ZM38.3566 26.5V17.74H40.2766V26.5H38.3566ZM40.0366 26.5V24.868H43.8646V26.5H40.0366ZM40.0366 22.864V21.232H43.5886V22.864H40.0366ZM40.0366 19.372V17.74H43.7806V19.372H40.0366ZM45.0736 26.5L47.9656 17.74H51.1456L54.1456 26.5H52.1056L49.6816 19.096L50.3056 19.348H48.7576L49.4056 19.096L47.0416 26.5H45.0736ZM47.2696 24.328L47.8696 22.696H51.3016L51.9136 24.328H47.2696ZM57.4363 26.548V24.712H59.0683C59.4763 24.712 59.8443 24.652 60.1723 24.532C60.5003 24.404 60.7803 24.228 61.0123 24.004C61.2443 23.772 61.4203 23.496 61.5403 23.176C61.6603 22.848 61.7203 22.488 61.7203 22.096C61.7203 21.688 61.6603 21.324 61.5403 21.004C61.4203 20.684 61.2443 20.412 61.0123 20.188C60.7803 19.964 60.5003 19.796 60.1723 19.684C59.8443 19.564 59.4763 19.504 59.0683 19.504H57.4363V17.668H58.9603C59.7523 17.668 60.4443 17.784 61.0363 18.016C61.6283 18.248 62.1243 18.564 62.5243 18.964C62.9243 19.364 63.2203 19.824 63.4123 20.344C63.6123 20.856 63.7123 21.396 63.7123 21.964V22.228C63.7123 22.756 63.6123 23.28 63.4123 23.8C63.2203 24.312 62.9243 24.776 62.5243 25.192C62.1243 25.6 61.6283 25.928 61.0363 26.176C60.4443 26.424 59.7523 26.548 58.9603 26.548H57.4363ZM55.7083 26.548V17.668H57.6763V26.548H55.7083ZM68.4428 26.5V17.74H70.4108V26.5H68.4428ZM70.1708 22.972V21.34H73.5548V22.972H70.1708ZM70.1708 19.372V17.74H73.6988V19.372H70.1708ZM79.2497 26.728C78.4257 26.728 77.7257 26.576 77.1497 26.272C76.5817 25.96 76.1497 25.52 75.8537 24.952C75.5577 24.384 75.4097 23.712 75.4097 22.936V17.74H77.3777V23.008C77.3777 23.392 77.4497 23.728 77.5937 24.016C77.7457 24.296 77.9577 24.512 78.2297 24.664C78.5097 24.816 78.8497 24.892 79.2497 24.892C79.6577 24.892 79.9977 24.816 80.2697 24.664C80.5497 24.512 80.7617 24.296 80.9057 24.016C81.0497 23.736 81.1217 23.4 81.1217 23.008V17.74H83.0897V22.936C83.0897 23.712 82.9417 24.384 82.6457 24.952C82.3497 25.52 81.9177 25.96 81.3497 26.272C80.7817 26.576 80.0817 26.728 79.2497 26.728ZM85.3141 26.5V17.74H87.2821V26.5H85.3141ZM87.0421 26.5V24.772H90.7141V26.5H87.0421ZM92.4255 26.5V17.74H94.3935V26.5H92.4255ZM94.1535 26.5V24.772H97.8255V26.5H94.1535ZM104.204 23.992V22.288H105.776C106.08 22.288 106.34 22.228 106.556 22.108C106.78 21.988 106.952 21.82 107.072 21.604C107.192 21.38 107.252 21.124 107.252 20.836C107.252 20.532 107.192 20.272 107.072 20.056C106.952 19.832 106.78 19.664 106.556 19.552C106.34 19.432 106.08 19.372 105.776 19.372H104.204V17.668H105.68C106.424 17.668 107.06 17.792 107.588 18.04C108.124 18.288 108.532 18.64 108.812 19.096C109.1 19.552 109.244 20.1 109.244 20.74V20.932C109.244 21.556 109.1 22.1 108.812 22.564C108.532 23.02 108.124 23.372 107.588 23.62C107.06 23.868 106.424 23.992 105.68 23.992H104.204ZM102.476 26.5V17.668H104.444V26.5H102.476ZM109.428 26.5L112.32 17.74H115.5L118.5 26.5H116.46L114.036 19.096L114.66 19.348H113.112L113.76 19.096L111.396 26.5H109.428ZM111.624 24.328L112.224 22.696H115.656L116.268 24.328H111.624ZM121.791 23.992V22.288H123.363C123.667 22.288 123.927 22.228 124.143 22.108C124.367 21.988 124.539 21.82 124.659 21.604C124.779 21.38 124.839 21.124 124.839 20.836C124.839 20.532 124.779 20.272 124.659 20.056C124.539 19.832 124.367 19.664 124.143 19.552C123.927 19.432 123.667 19.372 123.363 19.372H121.791V17.668H123.267C124.011 17.668 124.647 17.792 125.175 18.04C125.711 18.288 126.119 18.64 126.399 19.096C126.687 19.552 126.831 20.1 126.831 20.74V20.932C126.831 21.556 126.687 22.1 126.399 22.564C126.119 23.02 125.711 23.372 125.175 23.62C124.647 23.868 124.011 23.992 123.267 23.992H121.791ZM120.063 26.5V17.668H122.031V26.5H120.063ZM128.486 26.5V17.74H130.406V26.5H128.486ZM130.166 26.5V24.868H133.994V26.5H130.166ZM130.166 22.864V21.232H133.718V22.864H130.166ZM130.166 19.372V17.74H133.91V19.372H130.166ZM136.031 26.5V17.668H137.999V26.5H136.031ZM141.347 26.5L138.779 22.732H140.939L143.627 26.5H141.347ZM137.471 23.692V22.144H139.631C139.919 22.144 140.167 22.088 140.375 21.976C140.591 21.856 140.755 21.692 140.867 21.484C140.987 21.268 141.047 21.02 141.047 20.74C141.047 20.46 140.987 20.216 140.867 20.008C140.755 19.792 140.591 19.628 140.375 19.516C140.167 19.396 139.919 19.336 139.631 19.336H137.471V17.668H139.475C140.203 17.668 140.835 17.78 141.371 18.004C141.907 18.22 142.319 18.544 142.607 18.976C142.895 19.408 143.039 19.952 143.039 20.608V20.8C143.039 21.448 142.891 21.988 142.595 22.42C142.307 22.844 141.895 23.164 141.359 23.38C140.831 23.588 140.203 23.692 139.475 23.692H137.471Z" fill="white"/>
</svg>
