<svg width="144" height="44" viewBox="0 0 144 44" fill="none" xmlns="http://www.w3.org/2000/svg">
<path d="M0 8V36C0 40.4183 3.18375 44 7.11111 44H20V0H7.11111C3.18375 0 0 3.58172 0 8Z" fill="#083040"/>
<path d="M141.209 10.4692L131.187 1.85545C129.792 0.656586 128.034 0 126.217 0H124V44H136.24C140.526 44 144 40.4183 144 36V16.6138C144 14.2402 142.978 11.9892 141.209 10.4692Z" fill="#083040"/>
<rect width="104" height="44" transform="translate(20)" fill="#083040"/>
<path d="M33.3934 26.228C32.6094 26.228 31.9254 26.1 31.3414 25.844C30.7574 25.58 30.2734 25.228 29.8894 24.788C29.5134 24.348 29.2334 23.86 29.0494 23.324C28.8654 22.788 28.7734 22.252 28.7734 21.716V21.452C28.7734 20.9 28.8654 20.36 29.0494 19.832C29.2334 19.304 29.5094 18.824 29.8774 18.392C30.2534 17.96 30.7174 17.616 31.2694 17.36C31.8294 17.104 32.4734 16.976 33.2014 16.976C33.9934 16.976 34.6934 17.124 35.3014 17.42C35.9094 17.708 36.3974 18.112 36.7654 18.632C37.1334 19.144 37.3454 19.74 37.4014 20.42H35.4334C35.3854 20.1 35.2574 19.82 35.0494 19.58C34.8494 19.34 34.5894 19.152 34.2694 19.016C33.9574 18.88 33.6014 18.812 33.2014 18.812C32.8174 18.812 32.4734 18.88 32.1694 19.016C31.8734 19.152 31.6174 19.344 31.4014 19.592C31.1934 19.84 31.0334 20.136 30.9214 20.48C30.8174 20.816 30.7654 21.188 30.7654 21.596C30.7654 22.02 30.8214 22.408 30.9334 22.76C31.0534 23.104 31.2254 23.404 31.4494 23.66C31.6734 23.908 31.9494 24.1 32.2774 24.236C32.6134 24.372 32.9854 24.44 33.3934 24.44C33.9374 24.44 34.4094 24.328 34.8094 24.104C35.2094 23.88 35.4974 23.584 35.6734 23.216L35.4334 24.56V22.472H37.2454V24.344C36.8694 24.952 36.3494 25.42 35.6854 25.748C35.0294 26.068 34.2654 26.228 33.3934 26.228ZM33.1414 22.856V21.44H37.9654V22.856H33.1414ZM39.6575 26V17.24H41.5775V26H39.6575ZM41.3375 26V24.368H45.1655V26H41.3375ZM41.3375 22.364V20.732H44.8895V22.364H41.3375ZM41.3375 18.872V17.24H45.0815V18.872H41.3375ZM48.9425 26V18.716H50.9105V26H48.9425ZM46.4825 18.956V17.24H53.3825V18.956H46.4825ZM61.028 26.228C60.236 26.228 59.568 26.104 59.024 25.856C58.48 25.6 58.068 25.256 57.788 24.824C57.508 24.384 57.368 23.88 57.368 23.312H59.276C59.276 23.536 59.336 23.744 59.456 23.936C59.584 24.128 59.776 24.284 60.032 24.404C60.288 24.516 60.62 24.572 61.028 24.572C61.396 24.572 61.704 24.524 61.952 24.428C62.2 24.332 62.388 24.2 62.516 24.032C62.644 23.856 62.708 23.656 62.708 23.432C62.708 23.152 62.588 22.932 62.348 22.772C62.108 22.604 61.72 22.496 61.184 22.448L60.524 22.388C59.652 22.316 58.956 22.044 58.436 21.572C57.916 21.1 57.656 20.476 57.656 19.7C57.656 19.14 57.788 18.656 58.052 18.248C58.324 17.84 58.7 17.528 59.18 17.312C59.66 17.088 60.228 16.976 60.884 16.976C61.572 16.976 62.16 17.096 62.648 17.336C63.144 17.568 63.524 17.9 63.788 18.332C64.052 18.756 64.184 19.256 64.184 19.832H62.264C62.264 19.616 62.212 19.42 62.108 19.244C62.004 19.06 61.848 18.912 61.64 18.8C61.44 18.688 61.188 18.632 60.884 18.632C60.596 18.632 60.352 18.68 60.152 18.776C59.96 18.872 59.816 19.004 59.72 19.172C59.624 19.332 59.576 19.508 59.576 19.7C59.576 19.948 59.664 20.164 59.84 20.348C60.016 20.532 60.304 20.64 60.704 20.672L61.376 20.732C62.016 20.788 62.58 20.928 63.068 21.152C63.556 21.368 63.936 21.668 64.208 22.052C64.488 22.428 64.628 22.888 64.628 23.432C64.628 23.992 64.48 24.484 64.184 24.908C63.896 25.324 63.484 25.648 62.948 25.88C62.412 26.112 61.772 26.228 61.028 26.228ZM67.8978 26V18.716H69.8658V26H67.8978ZM65.4378 18.956V17.24H72.3378V18.956H65.4378ZM72.3944 26L75.2864 17.24H78.4664L81.4664 26H79.4264L77.0024 18.596L77.6264 18.848H76.0784L76.7264 18.596L74.3624 26H72.3944ZM74.5904 23.828L75.1904 22.196H78.6224L79.2344 23.828H74.5904ZM83.0291 26V17.168H84.9971V26H83.0291ZM88.3451 26L85.7771 22.232H87.9371L90.6251 26H88.3451ZM84.4691 23.192V21.644H86.6291C86.9171 21.644 87.1651 21.588 87.3731 21.476C87.5891 21.356 87.7531 21.192 87.8651 20.984C87.9851 20.768 88.0451 20.52 88.0451 20.24C88.0451 19.96 87.9851 19.716 87.8651 19.508C87.7531 19.292 87.5891 19.128 87.3731 19.016C87.1651 18.896 86.9171 18.836 86.6291 18.836H84.4691V17.168H86.4731C87.2011 17.168 87.8331 17.28 88.3691 17.504C88.9051 17.72 89.3171 18.044 89.6051 18.476C89.8931 18.908 90.0371 19.452 90.0371 20.108V20.3C90.0371 20.948 89.8891 21.488 89.5931 21.92C89.3051 22.344 88.8931 22.664 88.3571 22.88C87.8291 23.088 87.2011 23.192 86.4731 23.192H84.4691ZM93.7086 26V18.716H95.6766V26H93.7086ZM91.2486 18.956V17.24H98.1486V18.956H91.2486ZM99.8066 26V17.24H101.727V26H99.8066ZM101.487 26V24.368H105.315V26H101.487ZM101.487 22.364V20.732H105.039V22.364H101.487ZM101.487 18.872V17.24H105.231V18.872H101.487ZM109.08 26.048V24.212H110.712C111.12 24.212 111.488 24.152 111.816 24.032C112.144 23.904 112.424 23.728 112.656 23.504C112.888 23.272 113.064 22.996 113.184 22.676C113.304 22.348 113.364 21.988 113.364 21.596C113.364 21.188 113.304 20.824 113.184 20.504C113.064 20.184 112.888 19.912 112.656 19.688C112.424 19.464 112.144 19.296 111.816 19.184C111.488 19.064 111.12 19.004 110.712 19.004H109.08V17.168H110.604C111.396 17.168 112.088 17.284 112.68 17.516C113.272 17.748 113.768 18.064 114.168 18.464C114.568 18.864 114.864 19.324 115.056 19.844C115.256 20.356 115.356 20.896 115.356 21.464V21.728C115.356 22.256 115.256 22.78 115.056 23.3C114.864 23.812 114.568 24.276 114.168 24.692C113.768 25.1 113.272 25.428 112.68 25.676C112.088 25.924 111.396 26.048 110.604 26.048H109.08ZM107.352 26.048V17.168H109.32V26.048H107.352Z" fill="white"/>
</svg>
