<svg width="153" height="129" viewBox="0 0 153 129" fill="none" xmlns="http://www.w3.org/2000/svg">
<g filter="url(#filter0_d_139_2589)">
<circle cx="76" cy="53" r="44" fill="white" fill-opacity="0.5"/>
<circle cx="76" cy="53" r="44" stroke="#D8D8D8"/>
</g>
<path fill-rule="evenodd" clip-rule="evenodd" d="M91.8839 66.3839C91.6495 66.6183 91.3315 66.75 91 66.75H61C60.6685 66.75 60.3505 66.6183 60.1161 66.3839C59.8817 66.1495 59.75 65.8315 59.75 65.5V40.5C59.75 40.1685 59.8817 39.8505 60.1161 39.6161C60.3505 39.3817 60.6685 39.25 61 39.25C61.3315 39.25 61.6495 39.3817 61.8839 39.6161C62.1183 39.8505 62.25 40.1685 62.25 40.5V57.4828L70.1156 49.6156C70.2317 49.4994 70.3696 49.4072 70.5213 49.3443C70.6731 49.2814 70.8357 49.249 71 49.249C71.1643 49.249 71.3269 49.2814 71.4787 49.3443C71.6304 49.4072 71.7683 49.4994 71.8844 49.6156L76 53.7328L84.2328 45.5H81C80.6685 45.5 80.3505 45.3683 80.1161 45.1339C79.8817 44.8995 79.75 44.5815 79.75 44.25C79.75 43.9185 79.8817 43.6005 80.1161 43.3661C80.3505 43.1317 80.6685 43 81 43H87.25C87.5815 43 87.8995 43.1317 88.1339 43.3661C88.3683 43.6005 88.5 43.9185 88.5 44.25V50.5C88.5 50.8315 88.3683 51.1495 88.1339 51.3839C87.8995 51.6183 87.5815 51.75 87.25 51.75C86.9185 51.75 86.6005 51.6183 86.3661 51.3839C86.1317 51.1495 86 50.8315 86 50.5V47.2672L76.8844 56.3844C76.7683 56.5006 76.6304 56.5928 76.4787 56.6557C76.3269 56.7186 76.1643 56.751 76 56.751C75.8357 56.751 75.6731 56.7186 75.5213 56.6557C75.3696 56.5928 75.2317 56.5006 75.1156 56.3844L71 52.2672L62.25 61.0172V64.25H91C91.3315 64.25 91.6495 64.3817 91.8839 64.6161C92.1183 64.8505 92.25 65.1685 92.25 65.5C92.25 65.8315 92.1183 66.1495 91.8839 66.3839Z" fill="#F66D02"/>
<defs>
<filter id="filter0_d_139_2589" x="-0.5" y="0.5" width="153" height="153" filterUnits="userSpaceOnUse" color-interpolation-filters="sRGB">
<feFlood flood-opacity="0" result="BackgroundImageFix"/>
<feColorMatrix in="SourceAlpha" type="matrix" values="0 0 0 0 0 0 0 0 0 0 0 0 0 0 0 0 0 0 127 0" result="hardAlpha"/>
<feOffset dy="24"/>
<feGaussianBlur stdDeviation="16"/>
<feColorMatrix type="matrix" values="0 0 0 0 0 0 0 0 0 0 0 0 0 0 0 0 0 0 0.08 0"/>
<feBlend mode="normal" in2="BackgroundImageFix" result="effect1_dropShadow_139_2589"/>
<feBlend mode="normal" in="SourceGraphic" in2="effect1_dropShadow_139_2589" result="shape"/>
</filter>
</defs>
</svg>
