<svg width="153" height="129" viewBox="0 0 153 129" fill="none" xmlns="http://www.w3.org/2000/svg">
<g filter="url(#filter0_d_139_2554)">
<circle cx="76" cy="53" r="44" fill="white" fill-opacity="0.5"/>
<circle cx="76" cy="53" r="44" stroke="#D8D8D8"/>
</g>
<path d="M91.5914 57.6198C90.4518 61.4761 87.9242 64.7736 84.4964 66.8759C81.0685 68.9782 76.9834 69.7362 73.0295 69.0037C69.0757 68.2712 65.5333 66.1001 63.086 62.9093C60.6388 59.7186 59.4602 55.7344 59.7778 51.7258C60.0953 47.7172 61.8864 43.9683 64.8055 41.2026C67.7246 38.437 71.5646 36.8506 75.5845 36.7498C79.6044 36.6489 83.5192 38.0406 86.5733 40.6564L90.1155 37.1126C90.3501 36.8781 90.6682 36.7463 90.9999 36.7463C91.3316 36.7463 91.6497 36.8781 91.8843 37.1126C92.1188 37.3472 92.2506 37.6653 92.2506 37.997C92.2506 38.3287 92.1188 38.6468 91.8843 38.8814L76.8843 53.8814C76.6497 54.1159 76.3316 54.2477 75.9999 54.2477C75.6682 54.2477 75.3501 54.1159 75.1155 53.8814C74.881 53.6468 74.7492 53.3287 74.7492 52.997C74.7492 52.6653 74.881 52.3472 75.1155 52.1126L79.4468 47.7814C78.2729 47.0051 76.8715 46.6476 75.4692 46.7669C74.067 46.8862 72.746 47.4753 71.7202 48.4388C70.6944 49.4022 70.0238 50.6837 69.817 52.0757C69.6101 53.4678 69.8791 54.8889 70.5804 56.109C71.2817 57.3291 72.3743 58.2768 73.6812 58.7987C74.9882 59.3207 76.433 59.3862 77.7819 58.9848C79.1307 58.5833 80.3046 57.7384 81.1135 56.5868C81.9224 55.4352 82.3189 54.0442 82.239 52.6392C82.2297 52.475 82.2529 52.3107 82.3072 52.1555C82.3615 52.0003 82.4458 51.8573 82.5554 51.7347C82.6649 51.6121 82.7975 51.5123 82.9456 51.4409C83.0938 51.3696 83.2545 51.3281 83.4186 51.3189C83.7502 51.3002 84.0755 51.414 84.3231 51.6353C84.4457 51.7448 84.5456 51.8774 84.6169 52.0256C84.6883 52.1737 84.7297 52.3344 84.739 52.4986C84.8529 54.4873 84.2849 56.4554 83.1288 58.0775C81.9727 59.6997 80.2977 60.8788 78.3806 61.42C76.4636 61.9612 74.4192 61.8321 72.5855 61.054C70.7518 60.276 69.2384 58.8955 68.2955 57.1408C67.3527 55.3861 67.0368 53.3622 67.4 51.4036C67.7632 49.445 68.7839 47.669 70.2932 46.3691C71.8026 45.0692 73.7103 44.3232 75.7011 44.2544C77.6919 44.1856 79.6466 44.7981 81.2421 45.9908L84.7968 42.4361C82.1918 40.2733 78.8795 39.1491 75.4962 39.2796C72.1129 39.4101 68.8971 40.786 66.4664 43.143C64.0358 45.5001 62.5616 48.6721 62.3272 52.0498C62.0927 55.4275 63.1144 58.7727 65.1961 61.443C67.2778 64.1133 70.2726 65.9203 73.6055 66.517C76.9383 67.1137 80.3741 66.458 83.2529 64.6759C86.1318 62.8938 88.2507 60.1108 89.2027 56.8616C90.1547 53.6124 89.8727 50.126 88.4108 47.072C88.2679 46.7728 88.2496 46.4291 88.3601 46.1164C88.4706 45.8038 88.7007 45.5478 88.9999 45.4048C89.2991 45.2619 89.6428 45.2436 89.9555 45.3541C90.2681 45.4645 90.5241 45.6947 90.6671 45.9939C92.4017 49.6217 92.731 53.7634 91.5914 57.6198Z" fill="#F66D02"/>
<defs>
<filter id="filter0_d_139_2554" x="-0.5" y="0.5" width="153" height="153" filterUnits="userSpaceOnUse" color-interpolation-filters="sRGB">
<feFlood flood-opacity="0" result="BackgroundImageFix"/>
<feColorMatrix in="SourceAlpha" type="matrix" values="0 0 0 0 0 0 0 0 0 0 0 0 0 0 0 0 0 0 127 0" result="hardAlpha"/>
<feOffset dy="24"/>
<feGaussianBlur stdDeviation="16"/>
<feColorMatrix type="matrix" values="0 0 0 0 0 0 0 0 0 0 0 0 0 0 0 0 0 0 0.08 0"/>
<feBlend mode="normal" in2="BackgroundImageFix" result="effect1_dropShadow_139_2554"/>
<feBlend mode="normal" in="SourceGraphic" in2="effect1_dropShadow_139_2554" result="shape"/>
</filter>
</defs>
</svg>
