<svg width="153" height="129" viewBox="0 0 153 129" fill="none" xmlns="http://www.w3.org/2000/svg">
<g filter="url(#filter0_d_139_2575)">
<circle cx="76" cy="53" r="44" fill="white" fill-opacity="0.5"/>
<circle cx="76" cy="53" r="44" stroke="#D8D8D8"/>
</g>
<path fill-rule="evenodd" clip-rule="evenodd" d="M62.25 68C61.9185 68 61.6005 67.8683 61.3661 67.6339C61.1317 67.3995 61 67.0815 61 66.75C61 58.3703 66.7047 56.8469 66.9469 56.7859C67.2686 56.7055 67.6092 56.7563 67.8936 56.9269C68.1779 57.0976 68.3829 57.3743 68.4633 57.6961C68.5437 58.0179 68.4929 58.3584 68.3222 58.6428C68.1516 58.9272 67.8749 59.1321 67.5531 59.2125C67.4125 59.2516 64.05 60.2344 63.5594 65.4406C68.7656 64.95 69.75 61.5937 69.7906 61.4375C69.8735 61.1161 70.0806 60.8408 70.3665 60.6722C70.6523 60.5036 70.9935 60.4554 71.3148 60.5383C71.6362 60.6212 71.9115 60.8283 72.0801 61.1141C72.2487 61.4 72.2969 61.7411 72.214 62.0625V62.0531C72.1531 62.2953 70.6297 68 62.25 68ZM86 52.2672V61.3812C86.0018 61.7108 85.9381 62.0375 85.8126 62.3422C85.6871 62.6469 85.5022 62.9236 85.2687 63.1562L79.9062 68.5156C79.675 68.7485 79.3999 68.9333 79.0969 69.0594C78.7938 69.1854 78.4688 69.2502 78.1406 69.25C77.8697 69.2499 77.6007 69.2061 77.3437 69.1203C76.9026 68.9744 76.5111 68.708 76.2135 68.3513C75.9158 67.9945 75.7239 67.5617 75.6594 67.1016L74.8203 61.0875L67.9125 54.1797L61.9015 53.3406C61.4408 53.276 61.0073 53.0841 60.6497 52.7865C60.2921 52.489 60.0246 52.0975 59.8773 51.6562C59.7301 51.2149 59.7089 50.7413 59.8161 50.2886C59.9233 49.8359 60.1548 49.4221 60.4844 49.0937L65.8437 43.7312C66.0764 43.4978 66.3531 43.3129 66.6578 43.1874C66.9625 43.0618 67.2892 42.9981 67.6187 43H76.7328L77.4781 42.2547C81.6469 38.0875 86.6703 37.9078 88.6359 38.025C89.2454 38.062 89.8203 38.3209 90.252 38.7526C90.6838 39.1844 90.9426 39.7593 90.9797 40.3687C91.0937 42.3297 90.914 47.3531 86.7469 51.5219H86.7453L86 52.2672ZM68.0547 51.675L74.2328 45.5H67.6187L62.25 50.8656L68.0547 51.675ZM76 58.7312L84.9765 49.7547C86.1863 48.5531 87.1248 47.1065 87.729 45.5121C88.3333 43.9177 88.5892 42.2125 88.4797 40.5109C86.779 40.4055 85.0755 40.6641 83.4828 41.2696C81.8901 41.875 80.4449 42.8133 79.2437 44.0219L70.2687 53L76 58.7312ZM77.3234 60.9437L78.1359 66.75L83.5 61.3812V54.7672L77.3234 60.9437Z" fill="#F66D02"/>
<defs>
<filter id="filter0_d_139_2575" x="-0.5" y="0.5" width="153" height="153" filterUnits="userSpaceOnUse" color-interpolation-filters="sRGB">
<feFlood flood-opacity="0" result="BackgroundImageFix"/>
<feColorMatrix in="SourceAlpha" type="matrix" values="0 0 0 0 0 0 0 0 0 0 0 0 0 0 0 0 0 0 127 0" result="hardAlpha"/>
<feOffset dy="24"/>
<feGaussianBlur stdDeviation="16"/>
<feColorMatrix type="matrix" values="0 0 0 0 0 0 0 0 0 0 0 0 0 0 0 0 0 0 0.08 0"/>
<feBlend mode="normal" in2="BackgroundImageFix" result="effect1_dropShadow_139_2575"/>
<feBlend mode="normal" in="SourceGraphic" in2="effect1_dropShadow_139_2575" result="shape"/>
</filter>
</defs>
</svg>
