<svg width="153" height="129" viewBox="0 0 153 129" fill="none" xmlns="http://www.w3.org/2000/svg">
<g filter="url(#filter0_d_139_2563)">
<circle cx="76" cy="53" r="44" fill="white" fill-opacity="0.5"/>
<circle cx="76" cy="53" r="44" stroke="#D8D8D8"/>
</g>
<path fill-rule="evenodd" clip-rule="evenodd" d="M59.8453 61.2713C59.7824 61.423 59.75 61.5857 59.75 61.75C59.75 61.9142 59.7824 62.0769 59.8453 62.2286C59.9082 62.3804 60.0004 62.5182 60.1166 62.6343L63.8666 66.3843C64.1012 66.6189 64.4193 66.7507 64.751 66.7507C65.0827 66.7507 65.4008 66.6189 65.6354 66.3843C65.8699 66.1498 66.0017 65.8317 66.0017 65.5C66.0017 65.1683 65.8699 64.8501 65.6354 64.6156L64.0182 63H65.8541C67.6446 62.9985 69.4089 62.5704 71.0009 61.7511C72.5929 60.9319 73.9668 59.7451 75.0088 58.289L81.5275 49.164C82.338 48.0316 83.4066 47.1086 84.6448 46.4714C85.8831 45.8342 87.2553 45.5012 88.6479 45.5H92.251C92.5825 45.5 92.9004 45.3683 93.1349 45.1338C93.3693 44.8994 93.501 44.5815 93.501 44.25C93.501 43.9184 93.3693 43.6005 93.1349 43.3661C92.9004 43.1317 92.5825 43 92.251 43H88.6479C86.8574 43.0015 85.0931 43.4296 83.501 44.2488C81.909 45.068 80.5351 46.2549 79.4932 47.7109L72.9744 56.8359C72.1639 57.9683 71.0953 58.8913 69.8571 59.5285C68.6189 60.1657 67.2467 60.4987 65.8541 60.5H64.0182L65.6354 58.8843C65.8699 58.6498 66.0017 58.3317 66.0017 58C66.0017 57.6683 65.8699 57.3501 65.6354 57.1156C65.4008 56.881 65.0827 56.7493 64.751 56.7493C64.4193 56.7493 64.1012 56.881 63.8666 57.1156L60.1166 60.8656C60.0004 60.9817 59.9082 61.1195 59.8453 61.2713ZM74.4627 49.9193C74.3027 49.9564 74.1371 49.9615 73.9752 49.9346C73.8132 49.9076 73.6582 49.8489 73.5189 49.762C73.3797 49.6751 73.2589 49.5617 73.1635 49.4281L72.976 49.1672C72.1657 48.0339 71.097 47.1102 69.8585 46.4724C68.6199 45.8347 67.2472 45.5013 65.8541 45.5H64.0182L65.6354 47.1156C65.8699 47.3501 66.0017 47.6683 66.0017 48C66.0017 48.3317 65.8699 48.6498 65.6354 48.8843C65.4008 49.1189 65.0827 49.2507 64.751 49.2507C64.4193 49.2507 64.1012 49.1189 63.8666 48.8843L60.1166 45.1343C60.0004 45.0182 59.9082 44.8804 59.8453 44.7286C59.7824 44.5769 59.75 44.4142 59.75 44.25C59.75 44.0857 59.7824 43.923 59.8453 43.7713C59.9082 43.6195 60.0004 43.4817 60.1166 43.3656L63.8666 39.6156C64.1012 39.381 64.4193 39.2493 64.751 39.2493C65.0827 39.2493 65.4008 39.381 65.6354 39.6156C65.8699 39.8501 66.0017 40.1683 66.0017 40.5C66.0017 40.8317 65.8699 41.1498 65.6354 41.3843L64.0182 43H65.8541C67.6446 43.0015 69.4089 43.4296 71.0009 44.2488C72.5929 45.068 73.9668 46.2549 75.0088 47.7109L75.1963 47.9718C75.2923 48.1054 75.3609 48.2566 75.3984 48.4168C75.4358 48.577 75.4412 48.743 75.4144 48.9053C75.3875 49.0676 75.3289 49.223 75.2419 49.3625C75.1548 49.5021 75.0411 49.6232 74.9072 49.7187C74.7736 49.8141 74.6226 49.8823 74.4627 49.9193ZM80.0393 56.0806C80.1992 56.0436 80.3649 56.0384 80.5268 56.0654C80.6887 56.0924 80.8437 56.151 80.983 56.2379C81.1223 56.3248 81.2431 56.4383 81.3385 56.5718L81.526 56.8328C82.3363 57.966 83.405 58.8897 84.6435 59.5275C85.882 60.1652 87.2548 60.4986 88.6479 60.5H92.251C92.5825 60.5 92.9004 60.6317 93.1349 60.8661C93.3693 61.1005 93.501 61.4184 93.501 61.75C93.501 62.0815 93.3693 62.3994 93.1349 62.6338C92.9004 62.8683 92.5825 63 92.251 63H88.6479C86.8574 62.9985 85.0931 62.5704 83.501 61.7511C81.909 60.9319 80.5351 59.7451 79.4932 58.289L79.3057 58.0281C79.2097 57.8945 79.141 57.7433 79.1036 57.5831C79.0662 57.4229 79.0607 57.2569 79.0876 57.0946C79.1144 56.9324 79.1731 56.777 79.2601 56.6374C79.3471 56.4978 79.4608 56.3768 79.5947 56.2812C79.7283 56.1858 79.8794 56.1176 80.0393 56.0806Z" fill="#F66D02"/>
<defs>
<filter id="filter0_d_139_2563" x="-0.5" y="0.5" width="153" height="153" filterUnits="userSpaceOnUse" color-interpolation-filters="sRGB">
<feFlood flood-opacity="0" result="BackgroundImageFix"/>
<feColorMatrix in="SourceAlpha" type="matrix" values="0 0 0 0 0 0 0 0 0 0 0 0 0 0 0 0 0 0 127 0" result="hardAlpha"/>
<feOffset dy="24"/>
<feGaussianBlur stdDeviation="16"/>
<feColorMatrix type="matrix" values="0 0 0 0 0 0 0 0 0 0 0 0 0 0 0 0 0 0 0.08 0"/>
<feBlend mode="normal" in2="BackgroundImageFix" result="effect1_dropShadow_139_2563"/>
<feBlend mode="normal" in="SourceGraphic" in2="effect1_dropShadow_139_2563" result="shape"/>
</filter>
</defs>
</svg>
