<svg width="169" height="74" viewBox="0 0 169 74" fill="none" xmlns="http://www.w3.org/2000/svg">
<g clip-path="url(#clip0_2194_2953)">
<path fill-rule="evenodd" clip-rule="evenodd" d="M70.7033 59.5624V48.0647C70.9398 48.2558 71.1601 48.4405 71.3711 48.6172C71.8276 48.9999 72.2407 49.3462 72.6824 49.6433C77.3625 52.7908 84.5096 51.6504 88.4928 47.0869C91.8015 43.2946 92.6929 38.8134 91.8529 33.9647C90.7195 27.4744 86.5116 22.4709 79.2903 22.2278C75.9091 22.115 72.8805 22.9569 70.6079 25.6873C70.5696 25.7342 70.5103 25.7637 70.4153 25.811C70.3589 25.8389 70.2903 25.8731 70.206 25.9207V23.1769H62.5865V59.5624H70.7033ZM77.2216 43.7385C73.4938 43.7404 70.368 40.5775 70.3412 36.7755H70.3432C70.4879 33.6644 72.608 29.8911 77.1379 29.8776C78.9644 29.8699 80.7176 30.5987 82.0042 31.901C83.291 33.2032 84.0035 34.9696 83.982 36.8043C83.942 40.6559 80.9495 43.7365 77.2216 43.7385Z" fill="white"/>
<path fill-rule="evenodd" clip-rule="evenodd" d="M115.798 59.5624V48.1979C116.142 48.4347 116.471 48.6775 116.793 48.9157C117.472 49.4175 118.124 49.8989 118.836 50.2618C123.971 52.874 130.943 50.9899 134.431 46.0691C137.347 41.9547 137.887 37.3819 136.648 32.6044C135.348 27.5881 132.468 23.8636 127.211 22.6674C122.85 21.6756 118.727 22.1533 115.564 25.8549C115.553 25.8677 115.515 25.8577 115.451 25.841C115.41 25.8304 115.359 25.817 115.299 25.8052V23.2177H107.709V59.5624H115.798ZM122.313 43.7569C118.571 43.7435 115.453 40.5846 115.44 36.7932L115.438 36.7914C115.592 33.6593 117.731 29.9136 122.252 29.9136C124.08 29.9053 125.835 30.6351 127.121 31.9386C128.407 33.2422 129.115 35.0097 129.087 36.8429C129.029 40.6993 126.054 43.7702 122.313 43.7569Z" fill="white"/>
<path fill-rule="evenodd" clip-rule="evenodd" d="M146.72 38.6702H166.596C167.757 32.945 164.718 24.9084 156.655 22.7385C149.012 20.688 141.505 24.8699 139.4 32.2193C137.242 39.7487 141.377 47.4564 148.775 49.6263C156.537 51.9046 163.41 47.392 165.807 41.1947C165.801 41.1885 165.793 41.1806 165.787 41.1726C165.773 41.1569 165.761 41.1414 165.748 41.1414C165.162 41.1401 164.575 41.137 163.988 41.1337C162.194 41.1242 160.404 41.1146 158.611 41.1561C158.073 41.1764 157.559 41.3791 157.158 41.7294C155.473 43.3535 153.48 43.8312 151.211 43.4639C148.691 43.0504 146.736 40.978 146.72 38.6702ZM151.936 28.9378C155.497 28.6824 158.202 30.3985 158.765 33.3731H146.92C146.98 31.3576 149.186 29.1344 151.936 28.9378Z" fill="white"/>
<path d="M0.355039 59.5619V58.8373C0.355039 49.767 0.342136 40.6966 0.355039 31.619C0.364255 26.9294 3.48859 23.0655 8.05988 22.3685C10.069 22.0632 12.1611 22.317 14.3528 22.317V23.0802C14.3528 31.9973 14.3528 40.9143 14.3528 49.8314C14.3528 55.5325 10.3308 59.5325 4.61851 59.5528C3.24896 59.5657 1.86836 59.5619 0.355039 59.5619Z" fill="white"/>
<path d="M19.0209 43.9554V14.4377C21.6173 14.5732 24.2044 14.1125 26.714 15.0185C30.4098 16.3264 32.9228 19.9281 32.9925 24.0169C33.0425 27.308 33.0221 30.5991 33.0092 33.8903C32.9852 39.5045 29.4045 43.5701 24.0751 43.9574C22.4242 44.058 20.7623 43.9554 19.0209 43.9554Z" fill="white"/>
<path d="M103.042 50.2255H95.2626V23.7732H103.042V50.2255Z" fill="white"/>
<path d="M103.042 14.4373V20.6613H95.2626V14.4373H103.042Z" fill="white"/>
</g>
<defs>
<clipPath id="clip0_2194_2953">
<rect width="168.042" height="45.1245" fill="white" transform="translate(0 14.4377)"/>
</clipPath>
</defs>
</svg>
