<svg width="110" height="50" viewBox="0 0 110 50" fill="none" xmlns="http://www.w3.org/2000/svg">
<path d="M6 32.8537H12.2922V26.3659H15.7778C21.0628 26.3659 24.605 23.4314 24.605 18.7256C24.605 14.0732 21.1533 11 16.0041 11H6V32.8537ZM12.2922 21.7561V15.7378H14.5103C16.7171 15.7378 18.0412 16.8476 18.0412 18.7256C18.0412 20.593 16.7171 21.7561 14.5103 21.7561H12.2922Z" fill="#fff"/>
<path d="M38.2758 25.6829C38.2871 27.3049 37.2912 28.2866 35.7408 28.2866C34.1678 28.2866 33.2624 27.3049 33.2511 25.6829V16.4634H27.0042V26.9207C27.0155 30.5061 29.4147 33.0671 33.07 33.0671C35.6616 33.0671 37.6534 31.8293 38.4116 29.7378H38.5927V32.8537H44.5227V16.4634H38.2758V25.6829Z" fill="#fff"/>
<path d="M53.9469 11H47.7V32.8537H53.9469V11Z" fill="#fff"/>
<path d="M63.3767 11H57.1298V32.8537H63.3767V11Z" fill="#fff"/>
<path d="M74.8888 33.1524C79.7098 33.1524 82.8107 30.9756 83.3991 27.561H77.6954C77.3333 28.4893 76.3034 29.0122 75.0246 29.0122C73.1686 29.0122 72.0822 27.8598 72.0822 26.2805V26.0244H83.3991V24.6585C83.3991 19.4405 80.0041 16.25 74.753 16.25C69.3662 16.25 65.9258 19.6219 65.9258 24.7012C65.9258 30.0046 69.3209 33.1524 74.8888 33.1524ZM72.0822 22.7805C72.1162 21.3613 73.361 20.3902 74.8888 20.3902C76.4392 20.3902 77.6162 21.372 77.6501 22.7805H72.0822Z" fill="#fff"/>
<path d="M89.2839 39C93.6522 39 95.7006 36.9299 96.6625 34.2195L103 16.4634H96.4362L93.5843 27.8171H93.4033L90.5967 16.4634H84.0781L90.1893 33.5793L90.0535 33.878C89.6347 34.7851 88.4238 34.753 86.8847 34.2409L85.5267 38.4238C86.5 38.7866 87.8467 39 89.2839 39Z" fill="#fff"/>
</svg>
