<svg width="116" height="50" viewBox="0 0 116 50" fill="none" xmlns="http://www.w3.org/2000/svg">
<path d="M9.26829 22.6023H6.02655V4.32465H13.2092C15.2009 4.32465 16.7476 4.83326 17.8494 5.85049C18.9511 6.86771 19.502 8.40437 19.502 10.4605C19.502 12.2568 18.93 13.6636 17.7858 14.6809C16.6629 15.6981 15.1373 16.2067 13.2092 16.2067H9.26829V22.6023ZM12.7643 7.01921H9.26829V13.7719H12.7643C13.9084 13.7719 14.8301 13.4905 15.5293 12.9278C16.2285 12.3651 16.5781 11.521 16.5781 10.3955C16.5781 9.24845 16.2285 8.40437 15.5293 7.86329C14.8513 7.30057 13.9296 7.01921 12.7643 7.01921Z" fill="#fff"/>
<path d="M25.1607 22.6023H21.8872V4.32465H25.1607V12.0188H33.6464V4.32465H36.8882V22.6023H33.6464V14.5835H25.1607V22.6023Z" fill="#fff"/>
<path d="M48.6122 19.7778V22.6023H40.6349V19.7778H43.0503V7.18154H40.6349V4.32465H48.6122V7.18154H46.2603V19.7778H48.6122Z" fill="#fff"/>
<path d="M52.7416 22.6023V4.32465H55.9833V19.7778H64.8186V22.6023H52.7416Z" fill="#fff"/>
<path d="M75.5522 19.7778V22.6023H67.575V19.7778H69.9904V7.18154H67.575V4.32465H75.5522V7.18154H73.2003V19.7778H75.5522Z" fill="#fff"/>
<path d="M82.7326 22.6023H79.4909V4.32465H86.6736C88.6652 4.32465 90.2119 4.83326 91.3137 5.85049C92.4155 6.86771 92.9664 8.40437 92.9664 10.4605C92.9664 12.2568 92.3943 13.6636 91.2501 14.6809C90.1272 15.6981 88.6017 16.2067 86.6736 16.2067H82.7326V22.6023ZM86.2286 7.01921H82.7326V13.7719H86.2286C87.3728 13.7719 88.2944 13.4905 88.9936 12.9278C89.6928 12.3651 90.0424 11.521 90.0424 10.3955C90.0424 9.24845 89.6928 8.40437 88.9936 7.86329C88.3156 7.30057 87.394 7.01921 86.2286 7.01921Z" fill="#fff"/>
<path d="M102.28 22.9594C101.305 22.9594 100.341 22.8403 99.3878 22.6023C98.4555 22.3642 97.608 21.9962 96.8452 21.4985C96.0825 21.0007 95.4786 20.3514 95.0337 19.5506C94.5887 18.7281 94.3557 17.7434 94.3345 16.5963H97.608C97.608 16.7045 97.6504 16.9426 97.7351 17.3105C97.8199 17.6568 98.0106 18.0356 98.3072 18.4468C98.625 18.858 99.1123 19.2151 99.7692 19.5181C100.447 19.8211 101.358 19.9726 102.502 19.9726C103.752 19.9726 104.674 19.7345 105.267 19.2584C105.882 18.7822 106.189 18.2736 106.189 17.7326C106.189 17.1265 105.977 16.6504 105.553 16.3041C105.151 15.9362 104.6 15.644 103.901 15.4276C103.223 15.1895 102.471 14.9731 101.644 14.7783C100.839 14.5835 100.023 14.3671 99.1971 14.129C98.3919 13.8693 97.6504 13.5338 96.9724 13.1226C96.3155 12.6897 95.7964 12.1378 95.4151 11.4669C95.0337 10.7959 94.8642 9.94103 94.9065 8.90216C95.0125 7.3655 95.7329 6.16431 97.0677 5.29859C98.4025 4.43286 100.172 4 102.375 4C103.647 4 104.822 4.23808 105.903 4.71422C107.005 5.16873 107.884 5.86131 108.541 6.79196C109.219 7.70097 109.558 8.8697 109.558 10.2981H106.412C106.412 9.62721 106.263 9.08613 105.967 8.67491C105.67 8.24205 105.289 7.9174 104.822 7.70097C104.378 7.4629 103.901 7.3114 103.392 7.24647C102.884 7.15989 102.428 7.11661 102.026 7.11661C100.966 7.11661 100.087 7.30057 99.3878 7.66851C98.7098 8.03644 98.3708 8.57752 98.3708 9.29174C98.3496 9.89775 98.5509 10.3847 98.9746 10.7527C99.3984 11.1206 99.9598 11.4128 100.659 11.6292C101.358 11.8456 102.121 12.0404 102.947 12.2136C103.774 12.3867 104.6 12.6031 105.426 12.8629C106.253 13.1009 107.005 13.4256 107.683 13.8368C108.361 14.2264 108.891 14.7674 109.272 15.46C109.653 16.131 109.812 17.0075 109.749 18.0897C109.664 19.6263 108.933 20.8275 107.556 21.6932C106.178 22.5373 104.42 22.9594 102.28 22.9594Z" fill="#fff"/>
<path d="M8.0453 45.7942H6V34.2058H8.0453V39.084H13.3472V34.2058H15.3726V45.7942H13.3472V40.7101H8.0453V45.7942Z" fill="#fff"/>
<path d="M19.5802 44.1063H25.7558V45.7942H17.5746V34.2058H25.5572V36.0172H19.5802V39.0635H24.1672V40.7925H19.5802V44.1063Z" fill="#fff"/>
<path d="M26.8475 45.7942L30.4218 34.2058H33.7379L37.4115 45.7942H35.2471L34.2939 42.5214H29.9452L28.992 45.7942H26.8475ZM32.1096 35.0909L30.4218 40.8954H33.8174L32.1096 35.0909Z" fill="#fff"/>
<path d="M38.9684 45.7942V34.2058H40.9939V44.0034H46.5142V45.7942H38.9684Z" fill="#fff"/>
<path d="M45.6534 36.0172V34.2058H54.2913V36.0172H50.9751V45.7942H48.9497V36.0172H45.6534Z" fill="#fff"/>
<path d="M57.8823 45.7942H55.837V34.2058H57.8823V39.084H63.1842V34.2058H65.2096V45.7942H63.1842V40.7101H57.8823V45.7942Z" fill="#fff"/>
<path d="M72.3362 46C71.2904 46 70.3439 45.7804 69.4966 45.3413C68.6494 44.8885 67.9742 44.223 67.4712 43.3448C66.9814 42.4665 66.7365 41.3688 66.7365 40.0515C66.7497 38.7616 67.0012 37.6638 67.4911 36.7581C67.9809 35.8525 68.6494 35.1664 69.4966 34.6998C70.3439 34.2333 71.3103 34 72.3958 34C73.4284 34 74.3087 34.1921 75.0368 34.5763C75.7649 34.9605 76.3474 35.482 76.7842 36.1406C77.2343 36.7993 77.5256 37.5403 77.658 38.3636H75.5729C75.4803 37.7599 75.2618 37.2864 74.9177 36.9434C74.5867 36.5866 74.1962 36.3396 73.7461 36.2024C73.296 36.0515 72.8459 35.976 72.3958 35.976C71.2176 35.976 70.3108 36.319 69.6753 37.0051C69.0532 37.6912 68.7421 38.6587 68.7421 39.9074C68.7421 41.2384 69.0465 42.2607 69.6555 42.9743C70.2777 43.6878 71.1779 44.0446 72.3561 44.0446C72.8459 44.0446 73.3225 43.9691 73.7858 43.8182C74.2491 43.6535 74.6463 43.3928 74.9772 43.036C75.3082 42.6655 75.52 42.1715 75.6127 41.554H77.7175C77.5719 42.4048 77.2741 43.1664 76.824 43.8388C76.3871 44.4974 75.7914 45.0257 75.0368 45.4237C74.2955 45.8079 73.3953 46 72.3362 46Z" fill="#fff"/>
<path d="M78.6818 45.7942L82.2561 34.2058H85.5723L89.2459 45.7942H87.0815L86.1283 42.5214H81.7796L80.8264 45.7942H78.6818ZM83.944 35.0909L82.2561 40.8954H85.6517L83.944 35.0909Z" fill="#fff"/>
<path d="M90.6638 45.7942V34.2058H94.7743C96.2172 34.2058 97.3425 34.4597 98.15 34.9674C98.9575 35.4614 99.3613 36.3396 99.3613 37.6021C99.3613 38.5489 99.1429 39.3173 98.706 39.9074C98.2692 40.4837 97.6403 40.7719 96.8196 40.7719C97.2829 40.7719 97.6271 40.8816 97.8521 41.1012C98.0904 41.307 98.2559 41.5678 98.3486 41.8834C98.4412 42.199 98.5074 42.5283 98.5471 42.8714C98.5869 43.2144 98.6332 43.5232 98.6861 43.7976C98.7523 44.0583 98.8715 44.2436 99.0436 44.3533C99.2289 44.4631 99.5135 44.4425 99.8974 44.2916V45.506C99.6459 45.7256 99.3481 45.8696 99.0039 45.9382C98.6597 46.0206 98.3221 46 97.9912 45.8765C97.6602 45.753 97.3822 45.5129 97.1571 45.1561C96.9321 44.7856 96.8196 44.271 96.8196 43.6124C96.8196 43.0086 96.7865 42.5283 96.7203 42.1715C96.6541 41.801 96.4886 41.5266 96.2239 41.3482C95.9591 41.1561 95.5487 41.0394 94.9927 40.9983C94.4367 40.9434 93.6689 40.9434 92.6893 40.9983V45.7942H90.6638ZM92.6893 39.4751H94.6949C95.3435 39.4751 95.8797 39.4477 96.3033 39.3928C96.7269 39.3242 97.038 39.1732 97.2366 38.94C97.4484 38.693 97.5543 38.3019 97.5543 37.7667C97.5543 37.1767 97.4285 36.7513 97.177 36.4906C96.9255 36.2298 96.5548 36.072 96.065 36.0172C95.5884 35.9485 94.9993 35.9142 94.2977 35.9142H92.6893V39.4751Z" fill="#fff"/>
<path d="M103.624 44.1063H109.8V45.7942H101.619V34.2058H109.601V36.0172H103.624V39.0635H108.211V40.7925H103.624V44.1063Z" fill="#fff"/>
</svg>
